<?xml version="1.0" standalone="no"?>
<!DOCTYPE svg PUBLIC "-//W3C//DTD SVG 20010904//EN"
 "http://www.w3.org/TR/2001/REC-SVG-20010904/DTD/svg10.dtd">
<svg version="1.0" xmlns="http://www.w3.org/2000/svg"
 width="2160.000000pt" height="2160.000000pt" viewBox="0 0 2160.000000 2160.000000"
 preserveAspectRatio="xMidYMid meet">
<metadata>
Created by potrace 1.11, written by Peter Selinger 2001-2013
</metadata>
<g transform="translate(0.000000,2160.000000) scale(0.100000,-0.100000)"
fill="#000000" stroke="none">
<path d="M5439 20152 c-36 -2 -49 -8 -57 -25 -17 -34 -66 -119 -236 -411 -86
-148 -156 -270 -156 -272 0 -2 -17 -32 -38 -66 -21 -35 -50 -83 -64 -108 -14
-25 -59 -104 -101 -177 -42 -72 -85 -147 -95 -165 -11 -18 -52 -89 -92 -158
-130 -225 -302 -523 -355 -615 -29 -49 -86 -148 -127 -220 -41 -71 -128 -222
-193 -335 -65 -113 -126 -217 -136 -232 -11 -14 -19 -29 -19 -32 0 -4 -40 -76
-90 -161 -49 -84 -98 -169 -108 -187 -11 -18 -43 -73 -71 -121 -28 -49 -51
-93 -51 -98 0 -5 -4 -9 -10 -9 -5 0 -10 -4 -10 -9 0 -7 -106 -195 -161 -286
-11 -16 -22 -37 -26 -45 -4 -8 -32 -58 -63 -110 -31 -52 -70 -120 -87 -150
-16 -30 -45 -80 -63 -110 -18 -30 -40 -68 -50 -85 -16 -28 -135 -234 -265
-460 -32 -55 -69 -120 -83 -145 -14 -25 -44 -76 -67 -115 -22 -38 -44 -77 -48
-85 -4 -8 -15 -28 -26 -45 -10 -16 -27 -46 -38 -65 -11 -19 -41 -70 -67 -113
-25 -43 -46 -80 -46 -81 0 -2 -35 -63 -78 -137 -43 -74 -90 -154 -104 -179
-14 -25 -82 -143 -152 -263 -69 -119 -126 -222 -126 -227 0 -6 -4 -10 -10 -10
-5 0 -10 -4 -10 -9 0 -5 -27 -55 -60 -111 -33 -56 -60 -104 -60 -106 0 -3 -16
-30 -35 -60 -19 -30 -35 -56 -35 -58 0 -3 -88 -157 -130 -226 -5 -8 -42 -73
-83 -145 -41 -71 -123 -213 -182 -315 -59 -102 -121 -210 -137 -240 -17 -30
-37 -62 -44 -71 -8 -8 -14 -18 -14 -21 0 -3 -48 -88 -106 -189 -58 -101 -116
-201 -128 -224 -50 -88 -249 -431 -264 -455 -9 -14 -14 -26 -11 -26 2 -1 -3
-10 -11 -20 -8 -11 -22 -30 -29 -44 -8 -14 -37 -63 -64 -110 -27 -47 -91 -157
-142 -245 -51 -88 -145 -251 -209 -362 l-116 -203 36 -67 c21 -38 55 -97 76
-132 21 -34 38 -64 38 -66 0 -2 42 -74 93 -162 51 -87 96 -165 100 -173 4 -8
15 -28 25 -45 19 -30 307 -528 345 -595 11 -19 86 -150 167 -290 81 -140 157
-271 167 -290 69 -122 259 -450 274 -472 11 -15 19 -29 19 -32 0 -3 14 -29 32
-58 38 -65 133 -229 163 -283 12 -22 71 -123 130 -225 59 -102 117 -201 128
-220 81 -143 254 -443 277 -480 15 -25 91 -157 170 -295 79 -137 163 -283 187
-322 23 -40 43 -75 43 -78 0 -2 15 -28 34 -57 18 -29 45 -75 60 -103 15 -27
35 -64 45 -81 11 -17 88 -150 171 -295 84 -145 186 -322 228 -394 86 -150 70
-122 242 -420 73 -126 154 -267 181 -313 27 -45 49 -85 49 -88 0 -2 11 -23 26
-45 14 -22 34 -56 45 -75 42 -74 58 -102 101 -174 24 -41 47 -82 51 -90 4 -8
13 -24 20 -35 15 -25 98 -168 124 -215 11 -19 62 -107 113 -195 51 -88 101
-173 110 -190 9 -16 38 -65 64 -108 25 -43 46 -80 46 -82 0 -3 25 -45 55 -96
30 -50 55 -93 55 -95 0 -2 14 -27 31 -56 18 -29 72 -123 122 -208 122 -212
126 -219 155 -270 14 -25 53 -93 88 -153 35 -59 64 -109 64 -111 0 -3 23 -41
50 -86 28 -45 50 -83 50 -86 0 -2 29 -52 63 -111 69 -117 208 -356 240 -413
10 -19 36 -64 57 -100 21 -36 47 -81 58 -100 10 -19 44 -78 75 -130 l55 -95
5402 0 5402 0 105 180 c57 99 114 198 126 220 12 22 27 47 33 55 6 8 24 38 38
65 15 28 31 57 36 65 31 50 130 223 130 226 0 2 16 28 35 58 19 30 35 58 35
61 0 3 20 38 44 78 24 39 54 92 68 117 14 25 57 99 95 165 71 122 284 492 320
555 11 19 34 58 50 86 17 27 41 70 55 95 14 24 67 116 118 204 51 88 102 176
113 195 19 34 102 178 122 212 6 9 30 52 55 95 24 43 50 87 57 98 7 11 15 26
19 34 4 8 36 64 72 125 35 61 107 184 158 274 198 342 282 488 301 522 11 19
44 76 73 125 29 50 62 108 75 130 28 50 175 303 316 547 60 103 109 190 109
193 0 3 8 18 19 33 34 49 121 202 121 212 0 6 5 10 10 10 6 0 10 5 10 11 0 6
31 64 69 128 37 64 86 148 108 186 22 39 74 129 116 202 42 72 85 147 96 165
10 18 85 148 166 288 81 140 181 314 221 385 41 72 79 137 84 145 19 32 306
526 316 545 23 43 363 630 385 665 5 8 32 56 60 105 74 129 76 133 184 320
121 211 114 198 221 385 49 85 92 157 96 158 5 2 8 7 8 12 0 5 57 107 126 227
135 233 157 271 198 346 l27 48 -100 172 c-54 95 -156 271 -226 392 -70 121
-139 240 -153 265 -13 25 -37 65 -52 90 -25 42 -274 473 -317 550 -32 57 -171
297 -240 413 -34 59 -63 109 -63 112 0 3 -16 29 -35 59 -19 30 -35 57 -35 60
0 2 -35 65 -78 138 -43 73 -152 261 -242 418 -90 157 -190 329 -222 383 -32
54 -58 100 -58 102 0 2 -25 45 -55 95 -30 50 -55 93 -55 95 0 3 -18 34 -40 70
-22 36 -40 67 -40 69 0 3 -23 41 -50 86 -28 45 -50 83 -50 85 0 2 -23 43 -51
92 -29 48 -65 113 -82 143 -16 30 -36 62 -43 71 -8 8 -14 18 -14 22 0 3 -25
47 -55 98 -30 50 -55 93 -55 95 0 1 -45 80 -100 174 -55 94 -100 173 -100 174
0 2 -25 45 -55 96 -31 51 -72 122 -92 159 -20 36 -42 73 -49 82 -8 8 -14 18
-14 22 0 3 -45 83 -100 177 -55 94 -100 174 -100 177 0 3 -8 17 -19 31 -10 15
-31 50 -45 77 -15 28 -63 111 -107 185 -43 74 -109 187 -145 250 -36 63 -69
122 -74 130 -43 69 -210 361 -210 366 0 3 -8 18 -19 32 -10 15 -30 47 -43 72
-14 25 -57 98 -94 163 -38 65 -78 135 -90 155 -11 20 -55 98 -99 172 -43 74
-86 149 -95 165 -9 17 -43 75 -75 130 -108 187 -317 550 -343 595 -14 25 -33
57 -43 72 -11 14 -19 29 -19 32 0 3 -25 46 -55 97 -30 50 -55 93 -55 95 0 3
-10 21 -23 42 -13 20 -37 62 -54 92 -32 58 -207 361 -228 395 -7 11 -12 22
-11 25 0 3 -8 19 -20 35 -18 26 -221 372 -278 476 -113 202 -131 229 -156 230
-104 2 -10705 3 -10741 1z"/>
</g>
</svg>
